<svg xmlns="http://www.w3.org/2000/svg" xmlns:xlink="http://www.w3.org/1999/xlink" xmlns:lucid="lucid" width="213.1" height="710"><g transform="translate(-393.45188084164437 -102.33563456599106)" lucid:page-tab-id="r9r6Qx1nOQXN"><path d="M0 0h1000v1000H0z" fill="#fff"/><path d="M426.55 127.34a5 5 0 0 1 5-5h150a5 5 0 0 1 5 5v110a5 5 0 0 1-5 5h-150a5 5 0 0 1-5-5z" stroke="#000" stroke-width="2" fill="#fff"/><use xlink:href="#a" transform="matrix(1,0,0,1,438.5481191583557,134.33563456599106) translate(4.099999999999994 41.4)"/><use xlink:href="#b" transform="matrix(1,0,0,1,438.5481191583557,134.33563456599106) translate(54 41.4)"/><use xlink:href="#c" transform="matrix(1,0,0,1,438.5481191583557,134.33563456599106) translate(117.95 41.4)"/><use xlink:href="#d" transform="matrix(1,0,0,1,438.5481191583557,134.33563456599106) translate(27.074999999999996 63)"/><use xlink:href="#e" transform="matrix(1,0,0,1,438.5481191583557,134.33563456599106) translate(60.025 63)"/><path d="M426.55 275.9a5 5 0 0 1 5-5h150a5 5 0 0 1 5 5v110a5 5 0 0 1-5 5h-150a5 5 0 0 1-5-5z" stroke="#000" stroke-width="2" fill="#ced4db"/><use xlink:href="#a" transform="matrix(1,0,0,1,438.5481191583557,282.8883909792051) translate(4.099999999999994 41.4)"/><use xlink:href="#b" transform="matrix(1,0,0,1,438.5481191583557,282.8883909792051) translate(54 41.4)"/><use xlink:href="#c" transform="matrix(1,0,0,1,438.5481191583557,282.8883909792051) translate(117.95 41.4)"/><use xlink:href="#f" transform="matrix(1,0,0,1,438.5481191583557,282.8883909792051) translate(10.574999999999996 63)"/><use xlink:href="#e" transform="matrix(1,0,0,1,438.5481191583557,282.8883909792051) translate(76.525 63)"/><path d="M473.6 452.02h-55.33v-2h55.33zm122.04 0H539.5v-2h56.14z" stroke="#000" stroke-width=".05"/><path d="M596.64 452.02h-1.02v-2h1.02zM436.14 441.7l-15.76 9.32 15.76 9.32-1.02 1.72-18.67-11.04 18.67-11.04z" stroke="#000" stroke-width=".05"/><use xlink:href="#g" transform="matrix(1,0,0,1,473.59811915835576,440.2200801363387) translate(0.005000000000002558 14.4)"/><path d="M426.55 621.9a5 5 0 0 1 5-5h150a5 5 0 0 1 5 5v110a5 5 0 0 1-5 5h-150a5 5 0 0 1-5-5z" stroke="#1071e5" stroke-width="2" fill="#fff"/><use xlink:href="#h" transform="matrix(1,0,0,1,438.5481191583557,628.9015862274766) translate(16.5 41.4)"/><use xlink:href="#i" transform="matrix(1,0,0,1,438.5481191583557,628.9015862274766) translate(89.5 41.4)"/><use xlink:href="#j" transform="matrix(1,0,0,1,438.5481191583557,628.9015862274766) translate(109.5 41.4)"/><use xlink:href="#k" transform="matrix(1,0,0,1,438.5481191583557,628.9015862274766) translate(45.55 63)"/><path d="M595.64 790.33h-9.85v-2h9.84zm-19.7 0h-19.7v-2h19.7zm-118.25 0h-19.72v-2h19.7zm-29.58 0h-9.85v-2h9.85z" stroke="#1071e5" stroke-width=".05" fill="#1071e5"/><path d="M596.64 790.33h-1.02v-2h1.02zM436.14 780l-15.76 9.33 15.76 9.32-1.02 1.72-18.67-11.04 18.67-11.04z" stroke="#1071e5" stroke-width=".05" fill="#1071e5"/><g><use xlink:href="#l" transform="matrix(1,0,0,1,463.6098475534174,778.6643654340088) translate(0 14.222222222222223)"/><use xlink:href="#m" transform="matrix(1,0,0,1,463.6098475534174,778.6643654340088) translate(71.06172839506172 14.222222222222223)"/></g><path d="M459.66 499.1h-24.7v-2h24.7zm135.98 0h-42.2v-2h42.2z" stroke="#3a414a" stroke-width=".05" fill="#3a414a"/><path d="M596.64 499.1h-1.02v-2h1.02z" stroke="#3a414a" stroke-width=".05" fill="#3a414a"/><path d="M433.95 502.74l-14.26-4.63 14.25-4.63z" fill="#fff"/><path d="M434.95 504.12l-18.5-6 18.5-6.03zm-12.03-6l10.03 3.25v-6.52z" stroke="#3a414a" stroke-width=".05" fill="#3a414a"/><g><use xlink:href="#n" transform="matrix(1,0,0,1,459.6592302694668,487.439320529975) translate(0.005000000000002558 14.222222222222223)"/><use xlink:href="#o" transform="matrix(1,0,0,1,459.6592302694668,487.439320529975) translate(33.58524691358026 14.222222222222223)"/><use xlink:href="#p" transform="matrix(1,0,0,1,459.6592302694668,487.439320529975) translate(78.96796296296296 14.222222222222223)"/></g><path d="M473.6 561.9h-55.33v-2h55.33zm122.04 0H539.5v-2h56.14z" stroke="#e81313" stroke-width=".05" fill="#e81313"/><path d="M596.64 561.9h-1.02v-2h1.02zM436.14 551.6l-15.76 9.3 15.76 9.33-1.02 1.72-18.67-11.04 18.67-11.03z" stroke="#e81313" stroke-width=".05" fill="#e81313"/><g><use xlink:href="#q" transform="matrix(1,0,0,1,473.59811915835576,539.3089807949626) translate(2.5300000000000047 14.4)"/><use xlink:href="#r" transform="matrix(1,0,0,1,473.59811915835576,539.3089807949626) translate(0.005000000000002558 36)"/></g><defs><path d="M212-179c-10-28-35-45-73-45-59 0-87 40-87 99 0 60 29 101 89 101 43 0 62-24 78-52l27 14C228-24 195 4 139 4 59 4 22-46 18-125c-6-104 99-153 187-111 19 9 31 26 39 46" id="s"/><path d="M24 0v-261h32V0H24" id="t"/><path d="M141-36C126-15 110 5 73 4 37 3 15-17 15-53c-1-64 63-63 125-63 3-35-9-54-41-54-24 1-41 7-42 31l-33-3c5-37 33-52 76-52 45 0 72 20 72 64v82c-1 20 7 32 28 27v20c-31 9-61-2-59-35zM48-53c0 20 12 33 32 33 41-3 63-29 60-74-43 2-92-5-92 41" id="u"/><path d="M135-143c-3-34-86-38-87 0 15 53 115 12 119 90S17 21 10-45l28-5c4 36 97 45 98 0-10-56-113-15-118-90-4-57 82-63 122-42 12 7 21 19 24 35" id="v"/><g id="a"><use transform="matrix(0.05,0,0,0.05,0,0)" xlink:href="#s"/><use transform="matrix(0.05,0,0,0.05,12.950000000000001,0)" xlink:href="#t"/><use transform="matrix(0.05,0,0,0.05,16.900000000000002,0)" xlink:href="#u"/><use transform="matrix(0.05,0,0,0.05,26.900000000000002,0)" xlink:href="#v"/><use transform="matrix(0.05,0,0,0.05,35.900000000000006,0)" xlink:href="#v"/></g><path d="M85-194c31 0 48 13 60 33l-1-100h32l1 261h-30c-2-10 0-23-3-31C134-8 116 4 85 4 32 4 16-35 15-94c0-66 23-100 70-100zm9 24c-40 0-46 34-46 75 0 40 6 74 45 74 42 0 51-32 51-76 0-42-9-74-50-73" id="w"/><path d="M100-194c63 0 86 42 84 106H49c0 40 14 67 53 68 26 1 43-12 49-29l28 8c-11 28-37 45-77 45C44 4 14-33 15-96c1-61 26-98 85-98zm52 81c6-60-76-77-97-28-3 7-6 17-6 28h103" id="x"/><path d="M101-234c-31-9-42 10-38 44h38v23H63V0H32v-167H5v-23h27c-7-52 17-82 69-68v24" id="y"/><path d="M24-231v-30h32v30H24zM24 0v-190h32V0H24" id="z"/><path d="M117-194c89-4 53 116 60 194h-32v-121c0-31-8-49-39-48C34-167 62-67 57 0H25l-1-190h30c1 10-1 24 2 32 11-22 29-35 61-36" id="A"/><g id="b"><use transform="matrix(0.05,0,0,0.05,0,0)" xlink:href="#w"/><use transform="matrix(0.05,0,0,0.05,10,0)" xlink:href="#x"/><use transform="matrix(0.05,0,0,0.05,20,0)" xlink:href="#y"/><use transform="matrix(0.05,0,0,0.05,25,0)" xlink:href="#z"/><use transform="matrix(0.05,0,0,0.05,28.950000000000003,0)" xlink:href="#A"/><use transform="matrix(0.05,0,0,0.05,38.95,0)" xlink:href="#x"/><use transform="matrix(0.05,0,0,0.05,48.95,0)" xlink:href="#w"/></g><g id="c"><use transform="matrix(0.05,0,0,0.05,0,0)" xlink:href="#z"/><use transform="matrix(0.05,0,0,0.05,3.95,0)" xlink:href="#A"/></g><path d="M59-47c-2 24 18 29 38 22v24C64 9 27 4 27-40v-127H5v-23h24l9-43h21v43h35v23H59v120" id="B"/><path d="M106-169C34-169 62-67 57 0H25v-261h32l-1 103c12-21 28-36 61-36 89 0 53 116 60 194h-32v-121c2-32-8-49-39-48" id="C"/><g id="d"><use transform="matrix(0.05,0,0,0.05,0,0)" xlink:href="#B"/><use transform="matrix(0.05,0,0,0.05,5,0)" xlink:href="#C"/><use transform="matrix(0.05,0,0,0.05,15,0)" xlink:href="#z"/><use transform="matrix(0.05,0,0,0.05,18.95,0)" xlink:href="#v"/></g><path d="M210-169c-67 3-38 105-44 169h-31v-121c0-29-5-50-35-48C34-165 62-65 56 0H25l-1-190h30c1 10-1 24 2 32 10-44 99-50 107 0 11-21 27-35 58-36 85-2 47 119 55 194h-31v-121c0-29-5-49-35-48" id="D"/><path d="M100-194c62-1 85 37 85 99 1 63-27 99-86 99S16-35 15-95c0-66 28-99 85-99zM99-20c44 1 53-31 53-75 0-43-8-75-51-75s-53 32-53 75 10 74 51 75" id="E"/><g id="e"><use transform="matrix(0.05,0,0,0.05,0,0)" xlink:href="#D"/><use transform="matrix(0.05,0,0,0.05,14.950000000000001,0)" xlink:href="#E"/><use transform="matrix(0.05,0,0,0.05,24.950000000000003,0)" xlink:href="#w"/><use transform="matrix(0.05,0,0,0.05,34.95,0)" xlink:href="#x"/><use transform="matrix(0.05,0,0,0.05,44.95,0)" xlink:href="#t"/></g><path d="M114-163C36-179 61-72 57 0H25l-1-190h30c1 12-1 29 2 39 6-27 23-49 58-41v29" id="F"/><g id="f"><use transform="matrix(0.05,0,0,0.05,0,0)" xlink:href="#u"/><use transform="matrix(0.05,0,0,0.05,10,0)" xlink:href="#A"/><use transform="matrix(0.05,0,0,0.05,20,0)" xlink:href="#E"/><use transform="matrix(0.05,0,0,0.05,30,0)" xlink:href="#B"/><use transform="matrix(0.05,0,0,0.05,35,0)" xlink:href="#C"/><use transform="matrix(0.05,0,0,0.05,45,0)" xlink:href="#x"/><use transform="matrix(0.05,0,0,0.05,55,0)" xlink:href="#F"/></g><path d="M115-194c55 1 70 41 70 98S169 2 115 4C84 4 66-9 55-30l1 105H24l-1-265h31l2 30c10-21 28-34 59-34zm-8 174c40 0 45-34 45-75s-6-73-45-74c-42 0-51 32-51 76 0 43 10 73 51 73" id="G"/><path d="M179-190L93 31C79 59 56 82 12 73V49c39 6 53-20 64-50L1-190h34L92-34l54-156h33" id="H"/><g id="g"><use transform="matrix(0.05,0,0,0.05,0,0)" xlink:href="#G"/><use transform="matrix(0.05,0,0,0.05,10,0)" xlink:href="#F"/><use transform="matrix(0.05,0,0,0.05,15.949999999999998,0)" xlink:href="#E"/><use transform="matrix(0.05,0,0,0.05,25.950000000000003,0)" xlink:href="#G"/><use transform="matrix(0.05,0,0,0.05,35.95,0)" xlink:href="#x"/><use transform="matrix(0.05,0,0,0.05,45.95,0)" xlink:href="#F"/><use transform="matrix(0.05,0,0,0.05,51.900000000000006,0)" xlink:href="#B"/><use transform="matrix(0.05,0,0,0.05,56.900000000000006,0)" xlink:href="#H"/></g><path fill="#1071e5" d="M33 0v-248h34V0H33" id="I"/><path fill="#1071e5" d="M117-194c89-4 53 116 60 194h-32v-121c0-31-8-49-39-48C34-167 62-67 57 0H25l-1-190h30c1 10-1 24 2 32 11-22 29-35 61-36" id="J"/><path fill="#1071e5" d="M135-143c-3-34-86-38-87 0 15 53 115 12 119 90S17 21 10-45l28-5c4 36 97 45 98 0-10-56-113-15-118-90-4-57 82-63 122-42 12 7 21 19 24 35" id="K"/><path fill="#1071e5" d="M59-47c-2 24 18 29 38 22v24C64 9 27 4 27-40v-127H5v-23h24l9-43h21v43h35v23H59v120" id="L"/><path fill="#1071e5" d="M141-36C126-15 110 5 73 4 37 3 15-17 15-53c-1-64 63-63 125-63 3-35-9-54-41-54-24 1-41 7-42 31l-33-3c5-37 33-52 76-52 45 0 72 20 72 64v82c-1 20 7 32 28 27v20c-31 9-61-2-59-35zM48-53c0 20 12 33 32 33 41-3 63-29 60-74-43 2-92-5-92 41" id="M"/><path fill="#1071e5" d="M96-169c-40 0-48 33-48 73s9 75 48 75c24 0 41-14 43-38l32 2c-6 37-31 61-74 61-59 0-76-41-82-99-10-93 101-131 147-64 4 7 5 14 7 22l-32 3c-4-21-16-35-41-35" id="N"/><path fill="#1071e5" d="M100-194c63 0 86 42 84 106H49c0 40 14 67 53 68 26 1 43-12 49-29l28 8c-11 28-37 45-77 45C44 4 14-33 15-96c1-61 26-98 85-98zm52 81c6-60-76-77-97-28-3 7-6 17-6 28h103" id="O"/><g id="h"><use transform="matrix(0.05,0,0,0.05,0,0)" xlink:href="#I"/><use transform="matrix(0.05,0,0,0.05,5,0)" xlink:href="#J"/><use transform="matrix(0.05,0,0,0.05,15,0)" xlink:href="#K"/><use transform="matrix(0.05,0,0,0.05,24,0)" xlink:href="#L"/><use transform="matrix(0.05,0,0,0.05,29,0)" xlink:href="#M"/><use transform="matrix(0.05,0,0,0.05,39,0)" xlink:href="#J"/><use transform="matrix(0.05,0,0,0.05,49,0)" xlink:href="#N"/><use transform="matrix(0.05,0,0,0.05,58,0)" xlink:href="#O"/></g><path fill="#1071e5" d="M100-194c62-1 85 37 85 99 1 63-27 99-86 99S16-35 15-95c0-66 28-99 85-99zM99-20c44 1 53-31 53-75 0-43-8-75-51-75s-53 32-53 75 10 74 51 75" id="P"/><path fill="#1071e5" d="M101-234c-31-9-42 10-38 44h38v23H63V0H32v-167H5v-23h27c-7-52 17-82 69-68v24" id="Q"/><g id="i"><use transform="matrix(0.05,0,0,0.05,0,0)" xlink:href="#P"/><use transform="matrix(0.05,0,0,0.05,10,0)" xlink:href="#Q"/></g><use transform="matrix(0.05,0,0,0.05,0,0)" xlink:href="#M" id="j"/><path fill="#1071e5" d="M212-179c-10-28-35-45-73-45-59 0-87 40-87 99 0 60 29 101 89 101 43 0 62-24 78-52l27 14C228-24 195 4 139 4 59 4 22-46 18-125c-6-104 99-153 187-111 19 9 31 26 39 46" id="R"/><path fill="#1071e5" d="M24 0v-261h32V0H24" id="S"/><g id="k"><use transform="matrix(0.05,0,0,0.05,0,0)" xlink:href="#R"/><use transform="matrix(0.05,0,0,0.05,12.950000000000001,0)" xlink:href="#S"/><use transform="matrix(0.05,0,0,0.05,16.900000000000002,0)" xlink:href="#M"/><use transform="matrix(0.05,0,0,0.05,26.900000000000002,0)" xlink:href="#K"/><use transform="matrix(0.05,0,0,0.05,35.900000000000006,0)" xlink:href="#K"/></g><path fill="#1071e5" d="M24-231v-30h32v30H24zM24 0v-190h32V0H24" id="T"/><g id="l"><use transform="matrix(0.04938271604938272,0,0,0.04938271604938272,0,0)" xlink:href="#T"/><use transform="matrix(0.04938271604938272,0,0,0.04938271604938272,3.901234567901235,0)" xlink:href="#J"/><use transform="matrix(0.04938271604938272,0,0,0.04938271604938272,13.777777777777779,0)" xlink:href="#K"/><use transform="matrix(0.04938271604938272,0,0,0.04938271604938272,22.666666666666668,0)" xlink:href="#L"/><use transform="matrix(0.04938271604938272,0,0,0.04938271604938272,27.60493827160494,0)" xlink:href="#M"/><use transform="matrix(0.04938271604938272,0,0,0.04938271604938272,37.48148148148148,0)" xlink:href="#J"/><use transform="matrix(0.04938271604938272,0,0,0.04938271604938272,47.358024691358025,0)" xlink:href="#N"/><use transform="matrix(0.04938271604938272,0,0,0.04938271604938272,56.246913580246904,0)" xlink:href="#O"/></g><g id="m"><use transform="matrix(0.04938271604938272,0,0,0.04938271604938272,0,0)" xlink:href="#P"/><use transform="matrix(0.04938271604938272,0,0,0.04938271604938272,9.876543209876544,0)" xlink:href="#Q"/></g><path fill="#333" d="M135-143c-3-34-86-38-87 0 15 53 115 12 119 90S17 21 10-45l28-5c4 36 97 45 98 0-10-56-113-15-118-90-4-57 82-63 122-42 12 7 21 19 24 35" id="U"/><path fill="#333" d="M84 4C-5 8 30-112 23-190h32v120c0 31 7 50 39 49 72-2 45-101 50-169h31l1 190h-30c-1-10 1-25-2-33-11 22-28 36-60 37" id="V"/><path fill="#333" d="M115-194c53 0 69 39 70 98 0 66-23 100-70 100C84 3 66-7 56-30L54 0H23l1-261h32v101c10-23 28-34 59-34zm-8 174c40 0 45-34 45-75 0-40-5-75-45-74-42 0-51 32-51 76 0 43 10 73 51 73" id="W"/><g id="n"><use transform="matrix(0.04938271604938272,0,0,0.04938271604938272,0,0)" xlink:href="#U"/><use transform="matrix(0.04938271604938272,0,0,0.04938271604938272,8.88888888888889,0)" xlink:href="#V"/><use transform="matrix(0.04938271604938272,0,0,0.04938271604938272,18.765432098765434,0)" xlink:href="#W"/></g><path fill="#333" d="M96-169c-40 0-48 33-48 73s9 75 48 75c24 0 41-14 43-38l32 2c-6 37-31 61-74 61-59 0-76-41-82-99-10-93 101-131 147-64 4 7 5 14 7 22l-32 3c-4-21-16-35-41-35" id="X"/><path fill="#333" d="M24 0v-261h32V0H24" id="Y"/><path fill="#333" d="M141-36C126-15 110 5 73 4 37 3 15-17 15-53c-1-64 63-63 125-63 3-35-9-54-41-54-24 1-41 7-42 31l-33-3c5-37 33-52 76-52 45 0 72 20 72 64v82c-1 20 7 32 28 27v20c-31 9-61-2-59-35zM48-53c0 20 12 33 32 33 41-3 63-29 60-74-43 2-92-5-92 41" id="Z"/><g id="o"><use transform="matrix(0.04938271604938272,0,0,0.04938271604938272,0,0)" xlink:href="#X"/><use transform="matrix(0.04938271604938272,0,0,0.04938271604938272,8.88888888888889,0)" xlink:href="#Y"/><use transform="matrix(0.04938271604938272,0,0,0.04938271604938272,12.790123456790125,0)" xlink:href="#Z"/><use transform="matrix(0.04938271604938272,0,0,0.04938271604938272,22.666666666666668,0)" xlink:href="#U"/><use transform="matrix(0.04938271604938272,0,0,0.04938271604938272,31.555555555555557,0)" xlink:href="#U"/></g><path fill="#333" d="M100-194c62-1 85 37 85 99 1 63-27 99-86 99S16-35 15-95c0-66 28-99 85-99zM99-20c44 1 53-31 53-75 0-43-8-75-51-75s-53 32-53 75 10 74 51 75" id="aa"/><path fill="#333" d="M101-234c-31-9-42 10-38 44h38v23H63V0H32v-167H5v-23h27c-7-52 17-82 69-68v24" id="ab"/><g id="p"><use transform="matrix(0.04938271604938272,0,0,0.04938271604938272,0,0)" xlink:href="#aa"/><use transform="matrix(0.04938271604938272,0,0,0.04938271604938272,9.876543209876544,0)" xlink:href="#ab"/></g><path fill="#e81313" d="M24-231v-30h32v30H24zM24 0v-190h32V0H24" id="ac"/><path fill="#e81313" d="M117-194c89-4 53 116 60 194h-32v-121c0-31-8-49-39-48C34-167 62-67 57 0H25l-1-190h30c1 10-1 24 2 32 11-22 29-35 61-36" id="ad"/><path fill="#e81313" d="M101-234c-31-9-42 10-38 44h38v23H63V0H32v-167H5v-23h27c-7-52 17-82 69-68v24" id="ae"/><path fill="#e81313" d="M100-194c63 0 86 42 84 106H49c0 40 14 67 53 68 26 1 43-12 49-29l28 8c-11 28-37 45-77 45C44 4 14-33 15-96c1-61 26-98 85-98zm52 81c6-60-76-77-97-28-3 7-6 17-6 28h103" id="af"/><path fill="#e81313" d="M114-163C36-179 61-72 57 0H25l-1-190h30c1 12-1 29 2 39 6-27 23-49 58-41v29" id="ag"/><path fill="#e81313" d="M85-194c31 0 48 13 60 33l-1-100h32l1 261h-30c-2-10 0-23-3-31C134-8 116 4 85 4 32 4 16-35 15-94c0-66 23-100 70-100zm9 24c-40 0-46 34-46 75 0 40 6 74 45 74 42 0 51-32 51-76 0-42-9-74-50-73" id="ah"/><g id="q"><use transform="matrix(0.05,0,0,0.05,0,0)" xlink:href="#ac"/><use transform="matrix(0.05,0,0,0.05,3.95,0)" xlink:href="#ad"/><use transform="matrix(0.05,0,0,0.05,13.949999999999998,0)" xlink:href="#ae"/><use transform="matrix(0.05,0,0,0.05,18.95,0)" xlink:href="#af"/><use transform="matrix(0.05,0,0,0.05,28.950000000000003,0)" xlink:href="#ag"/><use transform="matrix(0.05,0,0,0.05,34.9,0)" xlink:href="#ag"/><use transform="matrix(0.05,0,0,0.05,40.85,0)" xlink:href="#af"/><use transform="matrix(0.05,0,0,0.05,50.85,0)" xlink:href="#ah"/></g><path fill="#e81313" d="M115-194c55 1 70 41 70 98S169 2 115 4C84 4 66-9 55-30l1 105H24l-1-265h31l2 30c10-21 28-34 59-34zm-8 174c40 0 45-34 45-75s-6-73-45-74c-42 0-51 32-51 76 0 43 10 73 51 73" id="ai"/><path fill="#e81313" d="M100-194c62-1 85 37 85 99 1 63-27 99-86 99S16-35 15-95c0-66 28-99 85-99zM99-20c44 1 53-31 53-75 0-43-8-75-51-75s-53 32-53 75 10 74 51 75" id="aj"/><path fill="#e81313" d="M59-47c-2 24 18 29 38 22v24C64 9 27 4 27-40v-127H5v-23h24l9-43h21v43h35v23H59v120" id="ak"/><path fill="#e81313" d="M179-190L93 31C79 59 56 82 12 73V49c39 6 53-20 64-50L1-190h34L92-34l54-156h33" id="al"/><g id="r"><use transform="matrix(0.05,0,0,0.05,0,0)" xlink:href="#ai"/><use transform="matrix(0.05,0,0,0.05,10,0)" xlink:href="#ag"/><use transform="matrix(0.05,0,0,0.05,15.949999999999998,0)" xlink:href="#aj"/><use transform="matrix(0.05,0,0,0.05,25.950000000000003,0)" xlink:href="#ai"/><use transform="matrix(0.05,0,0,0.05,35.95,0)" xlink:href="#af"/><use transform="matrix(0.05,0,0,0.05,45.95,0)" xlink:href="#ag"/><use transform="matrix(0.05,0,0,0.05,51.900000000000006,0)" xlink:href="#ak"/><use transform="matrix(0.05,0,0,0.05,56.900000000000006,0)" xlink:href="#al"/></g></defs></g></svg>