<svg xmlns="http://www.w3.org/2000/svg" xmlns:xlink="http://www.w3.org/1999/xlink" xmlns:lucid="lucid" width="1074.3" height="543.37"><g transform="translate(872.7314723253996 -321.791449106645)" lucid:page-tab-id="sjw-tzEjyPB6"><path d="M-1000 0H500v1000h-1500z" fill="#fff"/><path d="M-480.3 721.84h-2V698h2zm0-45.2h-2V659.8h2z" stroke="#5e5e5e" stroke-width=".05" fill="#5e5e5e"/><path d="M-480.3 659.82h-2v-1.03h2z" fill="#5e5e5e"/><path d="M-480.27 659.84h-2.05v-1.07h2.05zm-2-1.02v.97h1.95v-.98zM-470.26 705l-11.04 18.66-11.04-18.67 1.72-1.03 9.32 15.76 9.32-15.76z" stroke="#5e5e5e" stroke-width=".05" fill="#5e5e5e"/><use xlink:href="#a" transform="matrix(1,0,0,1,-532.1631135701077,676.6537409360004) translate(0.005000000000002558 14.222222222222223)"/><use xlink:href="#b" transform="matrix(1,0,0,1,-532.1631135701077,676.6537409360004) translate(33.58524691358026 14.222222222222223)"/><path d="M-561.3 731.16a6 6 0 0 1 6-6h148a6 6 0 0 1 6 6v108a6 6 0 0 1-6 6h-148a6 6 0 0 1-6-6z" stroke="#5e5e5e" stroke-width="3" fill="#fff"/><use xlink:href="#c" transform="matrix(1,0,0,1,-556.2989160392435,730.1565153742872) translate(38.95061728395062 58.90972222222222)"/><path d="M-51.91 786.16h-346.9v-2h346.9zm154.47-6.96l-.1 1.05-.24 1.07-.42 1.02-.57.93-.7.84-.85.72-.93.58-1.02.42-1.07.25-1.05.1H55.65v-2h39.9l.8-.08.77-.2.73-.3.67-.4.6-.5.5-.6.42-.68.3-.72.18-.76.07-.82v-118.5h2z" stroke="#5e5e5e" stroke-width=".05" fill="#5e5e5e"/><path d="M-398.77 786.16h-1.03v-2h1.03z" fill="#5e5e5e"/><path d="M-398.75 786.18h-1.07v-2.05h1.07zm-1.02-2v1.95h.97v-1.95zM112.6 677.46l-1.7 1.02-9.33-15.76-9.32 15.76-1.72-1.02 11.04-18.67z" stroke="#5e5e5e" stroke-width=".05" fill="#5e5e5e"/><use xlink:href="#a" transform="matrix(1,0,0,1,-51.91502002081906,774.4898487076206) translate(0.005000000000002558 14.222222222222223)"/><use xlink:href="#d" transform="matrix(1,0,0,1,-51.91502002081906,774.4898487076206) translate(33.58524691358026 14.222222222222223)"/><path d="M-380 598.8h-19.3v-2h19.3zm107.32 0h-18.48v-2h18.48z" stroke="#000" stroke-width=".05"/><path d="M-399.27 598.8h-1.03v-2h1.03z"/><path d="M-399.25 598.82h-1.07v-2.05h1.07zm-1.02-2v1.95h.97v-1.95zM-270.87 597.8l-18.67 11.03-1-1.72 15.75-9.3-15.75-9.33 1-1.72z" stroke="#000" stroke-width=".05"/><use xlink:href="#e" transform="matrix(1,0,0,1,-380.0076378961655,586.991449106645) translate(0.005000000000002558 14.4)"/><use xlink:href="#f" transform="matrix(1,0,0,1,-380.0076378961655,586.991449106645) translate(17.955000000000002 14.4)"/><use xlink:href="#g" transform="matrix(1,0,0,1,-380.0076378961655,586.991449106645) translate(67.905 14.4)"/><path d="M-561.3 542.8a5 5 0 0 1 5-5h150a5 5 0 0 1 5 5v110a5 5 0 0 1-5 5h-150a5 5 0 0 1-5-5z" stroke="#000" stroke-width="2" fill="#fff"/><use xlink:href="#h" transform="matrix(1,0,0,1,-549.2989160392435,549.7914491066449) translate(35.025 50.4)"/><path d="M-269.87 542.8a5 5 0 0 1 5-5h150a5 5 0 0 1 5 5v110a5 5 0 0 1-5 5h-150a5 5 0 0 1-5-5z" stroke="#000" stroke-width="2" fill="#fff"/><use xlink:href="#i" transform="matrix(1,0,0,1,-257.8663597530874,549.7914491066449) translate(18.049999999999997 41.4)"/><use xlink:href="#j" transform="matrix(1,0,0,1,-257.8663597530874,549.7914491066449) translate(42.025 63)"/><path d="M-359.3 561.7l-.07.9-.22.92-.35.87-.5.8-.6.7-.72.62-.8.5-.87.36-.92.22-.9.07h-34.04v-2h33.96l.67-.06.6-.13.6-.24.52-.33.48-.4.4-.48.33-.54.24-.58.15-.6.05-.67V534.8h2zm-5.06-122.63l.92.22.87.35.8.5.72.6.6.72.5.8.36.88.23.9.07.9v68.25h-2v-68.16l-.05-.67-.15-.6-.24-.58-.32-.55-.4-.48-.5-.4-.52-.33-.58-.24-.6-.15-.68-.05h-33.14v-2h33.22z" stroke="#000" stroke-width=".05"/><path d="M-399.27 567.67h-1.03v-2h1.03z"/><path d="M-399.25 567.7h-1.07v-2.06h1.07zm-1.02-2v1.94h.97v-1.95zM-380.6 430.68l-15.77 9.32 15.76 9.32-1.03 1.72L-400.3 440l18.67-11.04z" stroke="#000" stroke-width=".05"/><use xlink:href="#k" transform="matrix(1,0,0,1,-392.7739313041858,513.2000000000002) translate(0.005000000000002558 14.4)"/><use xlink:href="#l" transform="matrix(1,0,0,1,-392.7739313041858,513.2000000000002) translate(34.005 14.4)"/><path d="M-852.73 730.16a5 5 0 0 1 5-5h150a5 5 0 0 1 5 5v110a5 5 0 0 1-5 5h-150a5 5 0 0 1-5-5z" stroke="#000" stroke-width="2" fill="#ced4db"/><use xlink:href="#m" transform="matrix(1,0,0,1,-840.7314723253996,737.1565153742872) translate(34.525 50.4)"/><path d="M-852.73 542.8a5 5 0 0 1 5-5h150a5 5 0 0 1 5 5v110a5 5 0 0 1-5 5h-150a5 5 0 0 1-5-5z" stroke="#000" stroke-width="2" fill="#ced4db"/><use xlink:href="#n" transform="matrix(1,0,0,1,-840.7314723253996,549.7914491066449) translate(7.049999999999997 50.4)"/><use xlink:href="#o" transform="matrix(1,0,0,1,-840.7314723253996,549.7914491066449) translate(81.95 50.4)"/><path d="M-658.94 598.8h-30.97v-2h30.96zm95.64 0h-31.8v-2h31.8z" stroke="#000" stroke-width=".05"/><path d="M-562.3 598.8h-1.03v-2h1.03z"/><path d="M-562.27 598.82h-1.08v-2.05h1.08zm-1.03-2v1.95h.98v-1.95zM-672.04 588.47l-15.76 9.32 15.76 9.3-1.02 1.73-18.67-11.04 18.67-11.05z" stroke="#000" stroke-width=".05"/><use xlink:href="#p" transform="matrix(1,0,0,1,-658.9401941823216,565.3914491066449) translate(17.43 14.4)"/><use xlink:href="#q" transform="matrix(1,0,0,1,-658.9401941823216,565.3914491066449) translate(0.004999999999999005 36)"/><use xlink:href="#r" transform="matrix(1,0,0,1,-658.9401941823216,565.3914491066449) translate(9.93 57.6)"/><path d="M-88 601.5h-19.87v-2H-88zm106.75 0h-32.78v-2h32.78z" stroke="#3a414a" stroke-width=".05" fill="#3a414a"/><path d="M-107.84 601.5h-1.03v-2h1.03z" fill="#3a414a"/><path d="M-107.82 601.5h-1.07v-2.03h1.08zm-1.02-2v1.97h.97v-1.96zM20.57 600.5L1.9 611.52.88 609.8l15.76-9.3-15.76-9.33 1.02-1.72z" stroke="#3a414a" stroke-width=".05" fill="#3a414a"/><use xlink:href="#s" transform="matrix(1,0,0,1,-88.00208889585033,579.1565178273796) translate(22.671666666666667 14.222222222222223)"/><use xlink:href="#t" transform="matrix(1,0,0,1,-88.00208889585033,579.1565178273796) translate(0.005000000000002558 35.55555555555556)"/><path d="M21.57 542.8a5 5 0 0 1 5-5h150a5 5 0 0 1 5 5v110a5 5 0 0 1-5 5h-150a5 5 0 0 1-5-5z" stroke="#000" stroke-width="2" fill="#ced4db"/><use xlink:href="#u" transform="matrix(1,0,0,1,33.566196533069046,549.7914491066449) translate(28.549999999999997 50.4)"/><path d="M-561.3 346.8a5 5 0 0 1 5-5h150a5 5 0 0 1 5 5v110a5 5 0 0 1-5 5h-150a5 5 0 0 1-5-5z" stroke="#000" stroke-width="2" fill="#ced4db"/><use xlink:href="#v" transform="matrix(1,0,0,1,-549.2989160392435,353.791449106645) translate(24.049999999999997 41.4)"/><use xlink:href="#w" transform="matrix(1,0,0,1,-549.2989160392435,353.791449106645) translate(44.05 63)"/><path d="M-481.3 535.8v-54.5" stroke="#3a414a" stroke-width="2" fill="none"/><path d="M-480.3 536.8h-2v-1.03h2z" stroke="#3a414a" stroke-width=".05" fill="#3a414a"/><path d="M-481.3 466.03l4.64 14.26h-9.27z" stroke="#3a414a" stroke-width="2" fill="#fff"/><path d="M-269.87 346.8a5 5 0 0 1 5-5h150a5 5 0 0 1 5 5v110a5 5 0 0 1-5 5h-150a5 5 0 0 1-5-5z" stroke="#000" stroke-width="2" fill="#ced4db"/><use xlink:href="#x" transform="matrix(1,0,0,1,-257.8663597530873,353.791449106645) translate(37.05 50.4)"/><path d="M-189.87 535.8v-54.5" stroke="#3a414a" stroke-width="2" fill="none"/><path d="M-188.87 536.8h-2v-1.03h2z" stroke="#3a414a" stroke-width=".05" fill="#3a414a"/><path d="M-189.87 466.03l4.64 14.26h-9.27z" stroke="#3a414a" stroke-width="2" fill="#fff"/><path d="M-658.94 598.8h-30.97v-2h30.96zm300.62-107.7l2.9 2.12.85 2.57h108.03l.9.06.9.22.88.36.8.5.72.6.6.72.5.8.37.88.22.9.07.9v34.05h-2v-33.97l-.05-.66-.15-.6-.24-.6-.33-.53-.4-.48-.48-.4-.54-.33-.58-.24-.6-.16-.67-.05h-109.4l-1.1-3.34-2-1.46-1.1-.18-2.4.8-1.48 2-.35 2.17h-112.57l-1.1-3.34-2-1.46-1.1-.18-2.4.8-1.48 2-.35 2.17H-623.2l-.67.04-.6.15-.6.23-.53.33-.48.4-.4.48-.33.54-.25.58-.15.6-.05.67v63.56h-2v-63.65l.07-.9.22-.9.36-.88.5-.8.6-.72.72-.62.8-.5.88-.35.9-.22.9-.07h136.15l.16-1 2.13-2.9 3.5-1.13 2.05.33 2.9 2.12.85 2.57h109.42l.16-1 2.13-2.9 3.5-1.13z" stroke="#000" stroke-width=".05"/><path d="M-240.58 536.8h-2v-1.03h2z"/><path d="M-240.56 536.82h-2.05v-1.08h2.04zm-2-1.03v.97h1.95v-.98zM-672.04 588.47l-15.76 9.32 15.76 9.3-1.02 1.73-18.67-11.04 18.67-11.05z" stroke="#000" stroke-width=".05"/><path d="M-655.48 786.16h-34.43v-2h34.42zm91.68 0h-15.78v-2h15.78z" stroke="#5e5e5e" stroke-width=".05" fill="#5e5e5e"/><path d="M-562.8 786.16h-1.03v-2h1.03z" fill="#5e5e5e"/><path d="M-562.77 786.18h-1.08v-2.05h1.08zm-1.03-2v1.95h.98v-1.95zM-672.04 775.84l-15.76 9.32 15.76 9.32-1.02 1.72-18.67-11.04 18.67-11.04z" stroke="#5e5e5e" stroke-width=".05" fill="#5e5e5e"/><g><use xlink:href="#y" transform="matrix(1,0,0,1,-655.4834256829006,763.8231820409538) translate(0.005000000000002558 14.222222222222223)"/><use xlink:href="#z" transform="matrix(1,0,0,1,-655.4834256829006,763.8231820409538) translate(21.165493827160496 35.55555555555556)"/></g><path d="M-136.32 693.75l.05.67.15.6.24.6.33.52.4.48.48.4.54.33.57.24.62.14.66.05h30.5v2h-30.58l-.9-.08-.92-.22-.86-.36-.8-.5-.72-.6-.62-.72-.5-.8-.35-.87-.22-.92-.07-.9V660.6h2zm63.4-64.34l.9.23.88.36.8.48.72.6.6.73.5.8.36.88.22.92.07.9V688h-2v-52.62l-.05-.67-.14-.6-.25-.58-.33-.53-.4-.5-.5-.4-.52-.32-.58-.24-.6-.15-.68-.06h-33.97v-2h34.04z" stroke="#000" stroke-width=".05"/><path d="M-107.84 631.34h-1.03v-2h1.03z"/><path d="M-107.82 631.36h-1.07v-2.05h1.08zm-1.02-2v1.95h.97v-1.94zM-126.28 677.46l-1.72 1.02-9.32-15.76-9.32 15.76-1.72-1.02 11.04-18.67z" stroke="#000" stroke-width=".05"/><g><use xlink:href="#A" transform="matrix(1,0,0,1,-101.79138016538553,687.991364075621) translate(0.005000000000002558 14.4)"/></g><defs><path fill="#333" d="M106-169C34-169 62-67 57 0H25v-261h32l-1 103c12-21 28-36 61-36 89 0 53 116 60 194h-32v-121c2-32-8-49-39-48" id="B"/><path fill="#333" d="M141-36C126-15 110 5 73 4 37 3 15-17 15-53c-1-64 63-63 125-63 3-35-9-54-41-54-24 1-41 7-42 31l-33-3c5-37 33-52 76-52 45 0 72 20 72 64v82c-1 20 7 32 28 27v20c-31 9-61-2-59-35zM48-53c0 20 12 33 32 33 41-3 63-29 60-74-43 2-92-5-92 41" id="C"/><path fill="#333" d="M135-143c-3-34-86-38-87 0 15 53 115 12 119 90S17 21 10-45l28-5c4 36 97 45 98 0-10-56-113-15-118-90-4-57 82-63 122-42 12 7 21 19 24 35" id="D"/><g id="a"><use transform="matrix(0.04938271604938272,0,0,0.04938271604938272,0,0)" xlink:href="#B"/><use transform="matrix(0.04938271604938272,0,0,0.04938271604938272,9.876543209876544,0)" xlink:href="#C"/><use transform="matrix(0.04938271604938272,0,0,0.04938271604938272,19.75308641975309,0)" xlink:href="#D"/></g><path fill="#333" d="M177-190C167-65 218 103 67 71c-23-6-38-20-44-43l32-5c15 47 100 32 89-28v-30C133-14 115 1 83 1 29 1 15-40 15-95c0-56 16-97 71-98 29-1 48 16 59 35 1-10 0-23 2-32h30zM94-22c36 0 50-32 50-73 0-42-14-75-50-75-39 0-46 34-46 75s6 73 46 73" id="E"/><path fill="#333" d="M100-194c63 0 86 42 84 106H49c0 40 14 67 53 68 26 1 43-12 49-29l28 8c-11 28-37 45-77 45C44 4 14-33 15-96c1-61 26-98 85-98zm52 81c6-60-76-77-97-28-3 7-6 17-6 28h103" id="F"/><path fill="#333" d="M100-194c62-1 85 37 85 99 1 63-27 99-86 99S16-35 15-95c0-66 28-99 85-99zM99-20c44 1 53-31 53-75 0-43-8-75-51-75s-53 32-53 75 10 74 51 75" id="G"/><path fill="#333" d="M96-169c-40 0-48 33-48 73s9 75 48 75c24 0 41-14 43-38l32 2c-6 37-31 61-74 61-59 0-76-41-82-99-10-93 101-131 147-64 4 7 5 14 7 22l-32 3c-4-21-16-35-41-35" id="H"/><path fill="#333" d="M85-194c31 0 48 13 60 33l-1-100h32l1 261h-30c-2-10 0-23-3-31C134-8 116 4 85 4 32 4 16-35 15-94c0-66 23-100 70-100zm9 24c-40 0-46 34-46 75 0 40 6 74 45 74 42 0 51-32 51-76 0-42-9-74-50-73" id="I"/><g id="b"><use transform="matrix(0.04938271604938272,0,0,0.04938271604938272,0,0)" xlink:href="#E"/><use transform="matrix(0.04938271604938272,0,0,0.04938271604938272,9.876543209876544,0)" xlink:href="#F"/><use transform="matrix(0.04938271604938272,0,0,0.04938271604938272,19.75308641975309,0)" xlink:href="#G"/><use transform="matrix(0.04938271604938272,0,0,0.04938271604938272,29.629629629629633,0)" xlink:href="#H"/><use transform="matrix(0.04938271604938272,0,0,0.04938271604938272,38.51851851851852,0)" xlink:href="#G"/><use transform="matrix(0.04938271604938272,0,0,0.04938271604938272,48.39506172839506,0)" xlink:href="#I"/><use transform="matrix(0.04938271604938272,0,0,0.04938271604938272,58.27160493827161,0)" xlink:href="#F"/></g><path fill="#333" d="M143 4C61 4 22-44 18-125c-5-107 100-154 193-111 17 8 29 25 37 43l-32 9c-13-25-37-40-76-40-61 0-88 39-88 99 0 61 29 100 91 101 35 0 62-11 79-27v-45h-74v-28h105v86C228-13 192 4 143 4" id="J"/><g id="c"><use transform="matrix(0.049382716049382706,0,0,0.049382716049382706,0,0)" xlink:href="#J"/><use transform="matrix(0.049382716049382706,0,0,0.049382716049382706,13.827160493827158,0)" xlink:href="#F"/><use transform="matrix(0.049382716049382706,0,0,0.049382716049382706,23.7037037037037,0)" xlink:href="#G"/><use transform="matrix(0.049382716049382706,0,0,0.049382716049382706,33.58024691358024,0)" xlink:href="#H"/><use transform="matrix(0.049382716049382706,0,0,0.049382716049382706,42.469135802469125,0)" xlink:href="#G"/><use transform="matrix(0.049382716049382706,0,0,0.049382716049382706,52.34567901234567,0)" xlink:href="#I"/><use transform="matrix(0.049382716049382706,0,0,0.049382716049382706,62.22222222222221,0)" xlink:href="#F"/></g><path fill="#333" d="M210-169c-67 3-38 105-44 169h-31v-121c0-29-5-50-35-48C34-165 62-65 56 0H25l-1-190h30c1 10-1 24 2 32 10-44 99-50 107 0 11-21 27-35 58-36 85-2 47 119 55 194h-31v-121c0-29-5-49-35-48" id="K"/><path fill="#333" d="M59-47c-2 24 18 29 38 22v24C64 9 27 4 27-40v-127H5v-23h24l9-43h21v43h35v23H59v120" id="L"/><path fill="#333" d="M114-163C36-179 61-72 57 0H25l-1-190h30c1 12-1 29 2 39 6-27 23-49 58-41v29" id="M"/><path fill="#333" d="M179-190L93 31C79 59 56 82 12 73V49c39 6 53-20 64-50L1-190h34L92-34l54-156h33" id="N"/><g id="d"><use transform="matrix(0.04938271604938272,0,0,0.04938271604938272,0,0)" xlink:href="#E"/><use transform="matrix(0.04938271604938272,0,0,0.04938271604938272,9.876543209876544,0)" xlink:href="#F"/><use transform="matrix(0.04938271604938272,0,0,0.04938271604938272,19.75308641975309,0)" xlink:href="#G"/><use transform="matrix(0.04938271604938272,0,0,0.04938271604938272,29.629629629629633,0)" xlink:href="#K"/><use transform="matrix(0.04938271604938272,0,0,0.04938271604938272,44.39506172839506,0)" xlink:href="#F"/><use transform="matrix(0.04938271604938272,0,0,0.04938271604938272,54.27160493827161,0)" xlink:href="#L"/><use transform="matrix(0.04938271604938272,0,0,0.04938271604938272,59.20987654320988,0)" xlink:href="#M"/><use transform="matrix(0.04938271604938272,0,0,0.04938271604938272,65.08641975308642,0)" xlink:href="#N"/></g><path d="M24-231v-30h32v30H24zM24 0v-190h32V0H24" id="O"/><path d="M135-143c-3-34-86-38-87 0 15 53 115 12 119 90S17 21 10-45l28-5c4 36 97 45 98 0-10-56-113-15-118-90-4-57 82-63 122-42 12 7 21 19 24 35" id="P"/><g id="e"><use transform="matrix(0.05,0,0,0.05,0,0)" xlink:href="#O"/><use transform="matrix(0.05,0,0,0.05,3.95,0)" xlink:href="#P"/></g><path d="M117-194c89-4 53 116 60 194h-32v-121c0-31-8-49-39-48C34-167 62-67 57 0H25l-1-190h30c1 10-1 24 2 32 11-22 29-35 61-36" id="Q"/><path d="M141-36C126-15 110 5 73 4 37 3 15-17 15-53c-1-64 63-63 125-63 3-35-9-54-41-54-24 1-41 7-42 31l-33-3c5-37 33-52 76-52 45 0 72 20 72 64v82c-1 20 7 32 28 27v20c-31 9-61-2-59-35zM48-53c0 20 12 33 32 33 41-3 63-29 60-74-43 2-92-5-92 41" id="R"/><path d="M210-169c-67 3-38 105-44 169h-31v-121c0-29-5-50-35-48C34-165 62-65 56 0H25l-1-190h30c1 10-1 24 2 32 10-44 99-50 107 0 11-21 27-35 58-36 85-2 47 119 55 194h-31v-121c0-29-5-49-35-48" id="S"/><path d="M100-194c63 0 86 42 84 106H49c0 40 14 67 53 68 26 1 43-12 49-29l28 8c-11 28-37 45-77 45C44 4 14-33 15-96c1-61 26-98 85-98zm52 81c6-60-76-77-97-28-3 7-6 17-6 28h103" id="T"/><g id="f"><use transform="matrix(0.05,0,0,0.05,0,0)" xlink:href="#Q"/><use transform="matrix(0.05,0,0,0.05,10,0)" xlink:href="#R"/><use transform="matrix(0.05,0,0,0.05,20,0)" xlink:href="#S"/><use transform="matrix(0.05,0,0,0.05,34.95,0)" xlink:href="#T"/></g><path d="M101-234c-31-9-42 10-38 44h38v23H63V0H32v-167H5v-23h27c-7-52 17-82 69-68v24" id="U"/><path d="M100-194c62-1 85 37 85 99 1 63-27 99-86 99S16-35 15-95c0-66 28-99 85-99zM99-20c44 1 53-31 53-75 0-43-8-75-51-75s-53 32-53 75 10 74 51 75" id="V"/><path d="M114-163C36-179 61-72 57 0H25l-1-190h30c1 12-1 29 2 39 6-27 23-49 58-41v29" id="W"/><g id="g"><use transform="matrix(0.05,0,0,0.05,0,0)" xlink:href="#U"/><use transform="matrix(0.05,0,0,0.05,5,0)" xlink:href="#V"/><use transform="matrix(0.05,0,0,0.05,15,0)" xlink:href="#W"/></g><path d="M205 0l-28-72H64L36 0H1l101-248h38L239 0h-34zm-38-99l-47-123c-12 45-31 82-46 123h93" id="X"/><path d="M85-194c31 0 48 13 60 33l-1-100h32l1 261h-30c-2-10 0-23-3-31C134-8 116 4 85 4 32 4 16-35 15-94c0-66 23-100 70-100zm9 24c-40 0-46 34-46 75 0 40 6 74 45 74 42 0 51-32 51-76 0-42-9-74-50-73" id="Y"/><g id="h"><use transform="matrix(0.05,0,0,0.05,0,0)" xlink:href="#X"/><use transform="matrix(0.05,0,0,0.05,12,0)" xlink:href="#Y"/><use transform="matrix(0.05,0,0,0.05,22,0)" xlink:href="#Y"/><use transform="matrix(0.05,0,0,0.05,32,0)" xlink:href="#W"/><use transform="matrix(0.05,0,0,0.05,37.95,0)" xlink:href="#T"/><use transform="matrix(0.05,0,0,0.05,47.95,0)" xlink:href="#P"/><use transform="matrix(0.05,0,0,0.05,56.95,0)" xlink:href="#P"/></g><path d="M115-194c53 0 69 39 70 98 0 66-23 100-70 100C84 3 66-7 56-30L54 0H23l1-261h32v101c10-23 28-34 59-34zm-8 174c40 0 45-34 45-75 0-40-5-75-45-74-42 0-51 32-51 76 0 43 10 73 51 73" id="Z"/><path d="M24 0v-261h32V0H24" id="aa"/><g id="i"><use transform="matrix(0.05,0,0,0.05,0,0)" xlink:href="#X"/><use transform="matrix(0.05,0,0,0.05,12,0)" xlink:href="#Y"/><use transform="matrix(0.05,0,0,0.05,22,0)" xlink:href="#Y"/><use transform="matrix(0.05,0,0,0.05,32,0)" xlink:href="#W"/><use transform="matrix(0.05,0,0,0.05,37.95,0)" xlink:href="#T"/><use transform="matrix(0.05,0,0,0.05,47.95,0)" xlink:href="#P"/><use transform="matrix(0.05,0,0,0.05,56.95,0)" xlink:href="#P"/><use transform="matrix(0.05,0,0,0.05,65.95,0)" xlink:href="#R"/><use transform="matrix(0.05,0,0,0.05,75.95,0)" xlink:href="#Z"/><use transform="matrix(0.05,0,0,0.05,85.95,0)" xlink:href="#aa"/><use transform="matrix(0.05,0,0,0.05,89.9,0)" xlink:href="#T"/></g><path d="M140-251c81 0 123 46 123 126C263-46 219 4 140 4 59 4 17-45 17-125s42-126 123-126zm0 227c63 0 89-41 89-101s-29-99-89-99c-61 0-89 39-89 99S79-25 140-24" id="ab"/><path d="M24-231v-30h32v30H24zM-9 49c24 4 33-6 33-30v-209h32V24c2 40-23 58-65 49V49" id="ac"/><path d="M96-169c-40 0-48 33-48 73s9 75 48 75c24 0 41-14 43-38l32 2c-6 37-31 61-74 61-59 0-76-41-82-99-10-93 101-131 147-64 4 7 5 14 7 22l-32 3c-4-21-16-35-41-35" id="ad"/><path d="M59-47c-2 24 18 29 38 22v24C64 9 27 4 27-40v-127H5v-23h24l9-43h21v43h35v23H59v120" id="ae"/><g id="j"><use transform="matrix(0.05,0,0,0.05,0,0)" xlink:href="#ab"/><use transform="matrix(0.05,0,0,0.05,14,0)" xlink:href="#Z"/><use transform="matrix(0.05,0,0,0.05,24,0)" xlink:href="#ac"/><use transform="matrix(0.05,0,0,0.05,27.950000000000003,0)" xlink:href="#T"/><use transform="matrix(0.05,0,0,0.05,37.95,0)" xlink:href="#ad"/><use transform="matrix(0.05,0,0,0.05,46.95,0)" xlink:href="#ae"/></g><path d="M106-169C34-169 62-67 57 0H25v-261h32l-1 103c12-21 28-36 61-36 89 0 53 116 60 194h-32v-121c2-32-8-49-39-48" id="af"/><g id="k"><use transform="matrix(0.05,0,0,0.05,0,0)" xlink:href="#af"/><use transform="matrix(0.05,0,0,0.05,10,0)" xlink:href="#R"/><use transform="matrix(0.05,0,0,0.05,20,0)" xlink:href="#P"/></g><path d="M115-194c55 1 70 41 70 98S169 2 115 4C84 4 66-9 55-30l1 105H24l-1-265h31l2 30c10-21 28-34 59-34zm-8 174c40 0 45-34 45-75s-6-73-45-74c-42 0-51 32-51 76 0 43 10 73 51 73" id="ag"/><g id="l"><use transform="matrix(0.05,0,0,0.05,0,0)" xlink:href="#ag"/><use transform="matrix(0.05,0,0,0.05,10,0)" xlink:href="#R"/><use transform="matrix(0.05,0,0,0.05,20,0)" xlink:href="#W"/><use transform="matrix(0.05,0,0,0.05,25.950000000000003,0)" xlink:href="#ae"/></g><path d="M212-179c-10-28-35-45-73-45-59 0-87 40-87 99 0 60 29 101 89 101 43 0 62-24 78-52l27 14C228-24 195 4 139 4 59 4 22-46 18-125c-6-104 99-153 187-111 19 9 31 26 39 46" id="ah"/><g id="m"><use transform="matrix(0.05,0,0,0.05,0,0)" xlink:href="#ah"/><use transform="matrix(0.05,0,0,0.05,12.950000000000001,0)" xlink:href="#V"/><use transform="matrix(0.05,0,0,0.05,22.950000000000003,0)" xlink:href="#Q"/><use transform="matrix(0.05,0,0,0.05,32.95,0)" xlink:href="#ad"/><use transform="matrix(0.05,0,0,0.05,41.95,0)" xlink:href="#T"/><use transform="matrix(0.05,0,0,0.05,51.95,0)" xlink:href="#ag"/><use transform="matrix(0.05,0,0,0.05,61.95,0)" xlink:href="#ae"/></g><path d="M30 0v-248h33v221h125V0H30" id="ai"/><path d="M179-190L93 31C79 59 56 82 12 73V49c39 6 53-20 64-50L1-190h34L92-34l54-156h33" id="aj"/><g id="n"><use transform="matrix(0.05,0,0,0.05,0,0)" xlink:href="#ai"/><use transform="matrix(0.05,0,0,0.05,10,0)" xlink:href="#O"/><use transform="matrix(0.05,0,0,0.05,13.949999999999998,0)" xlink:href="#U"/><use transform="matrix(0.05,0,0,0.05,18.95,0)" xlink:href="#T"/><use transform="matrix(0.05,0,0,0.05,28.950000000000003,0)" xlink:href="#ad"/><use transform="matrix(0.05,0,0,0.05,37.95,0)" xlink:href="#aj"/><use transform="matrix(0.05,0,0,0.05,46.95,0)" xlink:href="#ad"/><use transform="matrix(0.05,0,0,0.05,55.95,0)" xlink:href="#aa"/><use transform="matrix(0.05,0,0,0.05,59.900000000000006,0)" xlink:href="#T"/></g><path d="M185-189c-5-48-123-54-124 2 14 75 158 14 163 119 3 78-121 87-175 55-17-10-28-26-33-46l33-7c5 56 141 63 141-1 0-78-155-14-162-118-5-82 145-84 179-34 5 7 8 16 11 25" id="ak"/><path d="M177-190C167-65 218 103 67 71c-23-6-38-20-44-43l32-5c15 47 100 32 89-28v-30C133-14 115 1 83 1 29 1 15-40 15-95c0-56 16-97 71-98 29-1 48 16 59 35 1-10 0-23 2-32h30zM94-22c36 0 50-32 50-73 0-42-14-75-50-75-39 0-46 34-46 75s6 73 46 73" id="al"/><g id="o"><use transform="matrix(0.05,0,0,0.05,0,0)" xlink:href="#ak"/><use transform="matrix(0.05,0,0,0.05,12,0)" xlink:href="#ae"/><use transform="matrix(0.05,0,0,0.05,17,0)" xlink:href="#R"/><use transform="matrix(0.05,0,0,0.05,27,0)" xlink:href="#al"/><use transform="matrix(0.05,0,0,0.05,37,0)" xlink:href="#T"/></g><g id="p"><use transform="matrix(0.05,0,0,0.05,0,0)" xlink:href="#af"/><use transform="matrix(0.05,0,0,0.05,10,0)" xlink:href="#R"/><use transform="matrix(0.05,0,0,0.05,20,0)" xlink:href="#P"/></g><g id="q"><use transform="matrix(0.05,0,0,0.05,0,0)" xlink:href="#aa"/><use transform="matrix(0.05,0,0,0.05,3.95,0)" xlink:href="#O"/><use transform="matrix(0.05,0,0,0.05,7.9,0)" xlink:href="#U"/><use transform="matrix(0.05,0,0,0.05,12.9,0)" xlink:href="#T"/><use transform="matrix(0.05,0,0,0.05,22.9,0)" xlink:href="#ad"/><use transform="matrix(0.05,0,0,0.05,31.899999999999995,0)" xlink:href="#aj"/><use transform="matrix(0.05,0,0,0.05,40.9,0)" xlink:href="#ad"/><use transform="matrix(0.05,0,0,0.05,49.9,0)" xlink:href="#aa"/><use transform="matrix(0.05,0,0,0.05,53.85,0)" xlink:href="#T"/></g><g id="r"><use transform="matrix(0.05,0,0,0.05,0,0)" xlink:href="#P"/><use transform="matrix(0.05,0,0,0.05,9,0)" xlink:href="#ae"/><use transform="matrix(0.05,0,0,0.05,14,0)" xlink:href="#R"/><use transform="matrix(0.05,0,0,0.05,24,0)" xlink:href="#al"/><use transform="matrix(0.05,0,0,0.05,34,0)" xlink:href="#T"/></g><g id="s"><use transform="matrix(0.04938271604938272,0,0,0.04938271604938272,0,0)" xlink:href="#B"/><use transform="matrix(0.04938271604938272,0,0,0.04938271604938272,9.876543209876544,0)" xlink:href="#C"/><use transform="matrix(0.04938271604938272,0,0,0.04938271604938272,19.75308641975309,0)" xlink:href="#D"/></g><g id="t"><use transform="matrix(0.04938271604938272,0,0,0.04938271604938272,0,0)" xlink:href="#E"/><use transform="matrix(0.04938271604938272,0,0,0.04938271604938272,9.876543209876544,0)" xlink:href="#F"/><use transform="matrix(0.04938271604938272,0,0,0.04938271604938272,19.75308641975309,0)" xlink:href="#G"/><use transform="matrix(0.04938271604938272,0,0,0.04938271604938272,29.629629629629633,0)" xlink:href="#K"/><use transform="matrix(0.04938271604938272,0,0,0.04938271604938272,44.39506172839506,0)" xlink:href="#F"/><use transform="matrix(0.04938271604938272,0,0,0.04938271604938272,54.27160493827161,0)" xlink:href="#L"/><use transform="matrix(0.04938271604938272,0,0,0.04938271604938272,59.20987654320988,0)" xlink:href="#M"/><use transform="matrix(0.04938271604938272,0,0,0.04938271604938272,65.08641975308642,0)" xlink:href="#N"/></g><path d="M143 4C61 4 22-44 18-125c-5-107 100-154 193-111 17 8 29 25 37 43l-32 9c-13-25-37-40-76-40-61 0-88 39-88 99 0 61 29 100 91 101 35 0 62-11 79-27v-45h-74v-28h105v86C228-13 192 4 143 4" id="am"/><g id="u"><use transform="matrix(0.05,0,0,0.05,0,0)" xlink:href="#am"/><use transform="matrix(0.05,0,0,0.05,14,0)" xlink:href="#T"/><use transform="matrix(0.05,0,0,0.05,24,0)" xlink:href="#V"/><use transform="matrix(0.05,0,0,0.05,34,0)" xlink:href="#S"/><use transform="matrix(0.05,0,0,0.05,48.95,0)" xlink:href="#T"/><use transform="matrix(0.05,0,0,0.05,58.95,0)" xlink:href="#ae"/><use transform="matrix(0.05,0,0,0.05,63.95,0)" xlink:href="#W"/><use transform="matrix(0.05,0,0,0.05,69.9,0)" xlink:href="#aj"/></g><path d="M84 4C-5 8 30-112 23-190h32v120c0 31 7 50 39 49 72-2 45-101 50-169h31l1 190h-30c-1-10 1-25-2-33-11 22-28 36-60 37" id="an"/><g id="v"><use transform="matrix(0.05,0,0,0.05,0,0)" xlink:href="#ah"/><use transform="matrix(0.05,0,0,0.05,12.950000000000001,0)" xlink:href="#V"/><use transform="matrix(0.05,0,0,0.05,22.950000000000003,0)" xlink:href="#S"/><use transform="matrix(0.05,0,0,0.05,37.900000000000006,0)" xlink:href="#ag"/><use transform="matrix(0.05,0,0,0.05,47.900000000000006,0)" xlink:href="#V"/><use transform="matrix(0.05,0,0,0.05,57.900000000000006,0)" xlink:href="#an"/><use transform="matrix(0.05,0,0,0.05,67.9,0)" xlink:href="#Q"/><use transform="matrix(0.05,0,0,0.05,77.9,0)" xlink:href="#Y"/></g><path d="M190 0L58-211 59 0H30v-248h39L202-35l-2-213h31V0h-41" id="ao"/><g id="w"><use transform="matrix(0.05,0,0,0.05,0,0)" xlink:href="#ao"/><use transform="matrix(0.05,0,0,0.05,12.950000000000001,0)" xlink:href="#R"/><use transform="matrix(0.05,0,0,0.05,22.950000000000003,0)" xlink:href="#S"/><use transform="matrix(0.05,0,0,0.05,37.900000000000006,0)" xlink:href="#T"/></g><path d="M63-220v92h138v28H63V0H30v-248h175v28H63" id="ap"/><g id="x"><use transform="matrix(0.05,0,0,0.05,0,0)" xlink:href="#ap"/><use transform="matrix(0.05,0,0,0.05,10.950000000000001,0)" xlink:href="#T"/><use transform="matrix(0.05,0,0,0.05,20.950000000000003,0)" xlink:href="#R"/><use transform="matrix(0.05,0,0,0.05,30.950000000000003,0)" xlink:href="#ae"/><use transform="matrix(0.05,0,0,0.05,35.95,0)" xlink:href="#an"/><use transform="matrix(0.05,0,0,0.05,45.95,0)" xlink:href="#W"/><use transform="matrix(0.05,0,0,0.05,51.900000000000006,0)" xlink:href="#T"/></g><path fill="#333" d="M24-231v-30h32v30H24zM24 0v-190h32V0H24" id="aq"/><path fill="#333" d="M117-194c89-4 53 116 60 194h-32v-121c0-31-8-49-39-48C34-167 62-67 57 0H25l-1-190h30c1 10-1 24 2 32 11-22 29-35 61-36" id="ar"/><path fill="#333" d="M24 0v-261h32V0H24" id="as"/><g id="y"><use transform="matrix(0.04938271604938272,0,0,0.04938271604938272,0,0)" xlink:href="#C"/><use transform="matrix(0.04938271604938272,0,0,0.04938271604938272,9.876543209876544,0)" xlink:href="#I"/><use transform="matrix(0.04938271604938272,0,0,0.04938271604938272,19.75308641975309,0)" xlink:href="#I"/><use transform="matrix(0.04938271604938272,0,0,0.04938271604938272,29.629629629629633,0)" xlink:href="#aq"/><use transform="matrix(0.04938271604938272,0,0,0.04938271604938272,33.53086419753087,0)" xlink:href="#L"/><use transform="matrix(0.04938271604938272,0,0,0.04938271604938272,38.46913580246914,0)" xlink:href="#aq"/><use transform="matrix(0.04938271604938272,0,0,0.04938271604938272,42.370370370370374,0)" xlink:href="#G"/><use transform="matrix(0.04938271604938272,0,0,0.04938271604938272,52.24691358024692,0)" xlink:href="#ar"/><use transform="matrix(0.04938271604938272,0,0,0.04938271604938272,62.12345679012346,0)" xlink:href="#C"/><use transform="matrix(0.04938271604938272,0,0,0.04938271604938272,72,0)" xlink:href="#as"/></g><path fill="#333" d="M115-194c55 1 70 41 70 98S169 2 115 4C84 4 66-9 55-30l1 105H24l-1-265h31l2 30c10-21 28-34 59-34zm-8 174c40 0 45-34 45-75s-6-73-45-74c-42 0-51 32-51 76 0 43 10 73 51 73" id="at"/><g id="z"><use transform="matrix(0.04938271604938272,0,0,0.04938271604938272,0,0)" xlink:href="#L"/><use transform="matrix(0.04938271604938272,0,0,0.04938271604938272,4.938271604938272,0)" xlink:href="#N"/><use transform="matrix(0.04938271604938272,0,0,0.04938271604938272,13.827160493827162,0)" xlink:href="#at"/><use transform="matrix(0.04938271604938272,0,0,0.04938271604938272,23.703703703703706,0)" xlink:href="#F"/></g><g id="A"><use transform="matrix(0.05,0,0,0.05,0,0)" xlink:href="#S"/><use transform="matrix(0.05,0,0,0.05,14.950000000000001,0)" xlink:href="#T"/><use transform="matrix(0.05,0,0,0.05,24.950000000000003,0)" xlink:href="#S"/><use transform="matrix(0.05,0,0,0.05,39.900000000000006,0)" xlink:href="#Z"/><use transform="matrix(0.05,0,0,0.05,49.900000000000006,0)" xlink:href="#T"/><use transform="matrix(0.05,0,0,0.05,59.900000000000006,0)" xlink:href="#W"/></g></defs></g></svg>